#!OML:ASF F:\VICON\USERDATA\INSTALL\rory3\rory3.ASF
:FULLY-SPECIFIED
:DEGREES
158
root -8.88905 17.9251 -0.288978 -20.1363 -72.3267 17.8707
lowerback 14.7743 3.25505 0.783827
upperback 1.25866 4.3715 -0.207095
thorax -6.85787 2.08054 -1.54715
lowerneck -22.8336 5.37714 -6.12016
upperneck 32.0022 8.89759 3.39339
head 14.3542 3.41994 4.03069
rclavicle -1.56046e-014 -1.51076e-014
rhumerus -28.3459 -15.2664 -76.8077
rradius 31.4319
rwrist 6.47681
rhand -18.1279 8.47494
rfingers 7.12502
rthumb 8.1469 -21.348
lclavicle -1.56046e-014 -1.51076e-014
lhumerus -35.0628 12.2309 78.1685
lradius 38.8771
lwrist 0.341089
lhand -22.2372 21.977
lfingers 7.12502
lthumb 4.17974 51.9157
rfemur -5.33797 0.266475 15.9928
rtibia 31.165
rfoot -17.3328 -4.58581
rtoes 9.46056
lfemur -14.7842 1.00517 -15.3285
ltibia 37.996
lfoot -6.54699 -0.912266
ltoes -14.8901
159
root -8.87842 17.9474 -0.236385 -20.0024 -72.2109 17.8634
lowerback 14.586 3.22349 0.736889
upperback 1.26075 4.319 -0.249502
thorax -6.75275 2.05823 -1.54302
lowerneck -22.7908 5.31475 -6.23293
upperneck 31.6583 8.82567 3.43592
head 14.1883 3.40426 4.03299
rclavicle 3.51849e-014 -1.27222e-014
rhumerus -28.3887 -14.893 -76.9262
rradius 31.7031
rwrist 5.44621
rhand -18.2401 8.02302
rfingers 7.12502
rthumb 8.0386 -21.8041
lclavicle 3.51849e-014 -1.27222e-014
lhumerus -35.2143 12.4805 78.0763
lradius 38.6746
lwrist 0.329103
lhand -22.3393 22.1043
lfingers 7.12502
lthumb 4.08115 52.045
rfemur -5.17212 0.291519 15.7582
rtibia 30.6907
rfoot -17.1701 -4.59925
rtoes 10.3988
lfemur -14.4834 0.882526 -14.7321
ltibia 37.2536
lfoot -5.1588 0.69361
ltoes -12.6882
160
root -8.86269 17.9668 -0.183742 -19.7692 -72.046 17.7124
lowerback 14.5791 3.13108 0.748303
upperback 1.20687 4.19658 -0.299674
thorax -6.80495 1.99711 -1.57995
lowerneck -22.8483 5.31669 -6.38151
upperneck 31.5319 8.82181 3.63305
head 14.1225 3.42313 4.1305
rclavicle 2.16675e-014 1.19271e-014
rhumerus -28.5191 -14.6903 -76.9598
rradius 31.9567
rwrist 4.4916
rhand -18.3666 7.89382
rfingers 7.12502
rthumb 7.9165 -21.9379
lclavicle 2.16675e-014 1.19271e-014
lhumerus -35.4409 12.8274 77.8624
lradius 38.4721
lwrist 0.155791
lhand -22.1848 22.636
lfingers 7.12502
lthumb 4.23036 52.5738
rfemur -4.99629 0.31448 15.5787
rtibia 30.2421
rfoot -17.0228 -4.8054
rtoes 10.9391
lfemur -14.1703 0.777553 -14.1346
ltibia 36.4903
lfoot -3.60741 2.16255
ltoes -11.038
161
root -8.84759 17.9815 -0.130904 -19.5397 -71.8645 17.564
lowerback 14.5523 3.07325 0.787376
upperback 1.17866 4.11773 -0.42803
thorax -6.8098 1.95593 -1.72121
lowerneck -23.0304 5.30277 -6.31256
upperneck 31.4685 8.73987 3.77871
head 14.1322 3.42165 4.16969
rclavicle -7.08667e-014 3.97569e-015
rhumerus -28.6056 -15.2712 -76.8977
rradius 32.0432
rwrist 4.03325
rhand -17.9484 8.31708
rfingers 7.12502
rthumb 8.3201 -21.4991
lclavicle -7.08667e-014 3.97569e-015
lhumerus -35.4774 13.0566 77.6116
lradius 38.1765
lwrist 0.203816
lhand -22.2481 22.5405
lfingers 7.12502
lthumb 4.16917 52.4795
rfemur -4.83093 0.271454 15.404
rtibia 29.7767
rfoot -16.7606 -5.10158
rtoes 10.5242
lfemur -13.8691 0.712865 -13.5453
ltibia 35.7326
lfoot -2.08247 3.27239
ltoes -9.31349
162
root -8.83552 17.9961 -0.076977 -19.3599 -71.738 17.4812
lowerback 14.4305 3.10614 0.798452
upperback 1.1835 4.15606 -0.52366
thorax -6.72775 1.97478 -1.82804
lowerneck -23.0296 5.19508 -6.3114
upperneck 31.1521 8.58108 3.76922
head 14.0057 3.3715 4.1222
rclavicle 3.04141e-014 -7.95139e-015
rhumerus -28.7195 -15.9353 -76.7423
rradius 32.1261
rwrist 3.83163
rhand -17.629 8.75009
rfingers 7.12502
rthumb 8.62833 -21.0536
lclavicle 3.04141e-014 -7.95139e-015
lhumerus -35.4104 13.1763 77.4761
lradius 37.8708
lwrist 0.539739
lhand -22.5982 22.463
lfingers 7.12502
lthumb 3.83115 52.4083
rfemur -4.68055 0.208675 15.2104
rtibia 29.3053
rfoot -16.4738 -5.266
rtoes 10.1525
lfemur -13.5386 0.530808 -12.9706
ltibia 34.9906
lfoot -0.661869 4.3531
ltoes -6.16799
163
root -8.8263 18.0139 -0.0183428 -18.8947 -71.5859 17.0393
lowerback 14.3383 3.08542 0.842693
upperback 1.15994 4.13933 -0.488225
thorax -6.7018 1.96687 -1.80733
lowerneck -23.0339 5.13259 -6.35834
upperneck 31.0361 8.54025 3.67728
head 13.9636 3.34104 4.08065
rclavicle 6.72389e-014 -3.97569e-015
rhumerus -28.9312 -15.9473 -76.6068
rradius 32.342
rwrist 3.53354
rhand -17.8561 8.85273
rfingers 7.12502
rthumb 8.4092 -20.9599
lclavicle 6.72389e-014 -3.97569e-015
lhumerus -35.5147 13.5275 77.3708
lradius 37.5671
lwrist 0.80592
lhand -22.9571 22.6323
lfingers 7.12502
lthumb 3.48454 52.5836
rfemur -4.44128 0.0738423 15.098
rtibia 28.8421
rfoot -16.2833 -5.35829
rtoes 10.1967
lfemur -13.1283 0.354987 -12.3404
ltibia 34.2458
lfoot 0.670787 5.3459
ltoes -3.26747
164
root -8.8079 18.0262 0.0341772 -18.2414 -71.2768 16.3933
lowerback 14.4316 2.97905 0.861334
upperback 1.06112 4.00838 -0.436969
thorax -6.86585 1.90075 -1.74794
lowerneck -23.07 5.11084 -6.43335
upperneck 31.0789 8.53012 3.71505
head 13.9843 3.33071 4.11012
rclavicle -5.63555e-014 -2.38542e-015
rhumerus -29.2023 -15.6272 -76.5499
rradius 32.5749
rwrist 3.18515
rhand -17.9255 8.648
rfingers 7.12502
rthumb 8.34227 -21.1673
lclavicle -5.63555e-014 -2.38542e-015
lhumerus -35.7029 14.0209 77.1878
lradius 37.2528
lwrist 0.757839
lhand -22.8357 22.8702
lfingers 7.12502
lthumb 3.60172 52.8195
rfemur -4.18783 0.0297106 15.0664
rtibia 28.3946
rfoot -16.0663 -5.72586
rtoes 9.90713
lfemur -12.7909 0.376969 -11.671
ltibia 33.4856
lfoot 1.99999 5.86807
ltoes -2.01877
165
root -8.78837 18.0327 0.0856319 -17.7952 -70.9269 16.0088
lowerback 14.4283 2.92297 0.792937
upperback 1.02363 3.92651 -0.40813
thorax -6.91336 1.86286 -1.66435
lowerneck -23.0244 5.0315 -6.64468
upperneck 30.8581 8.46348 3.79572
head 13.8674 3.30344 4.15089
rclavicle 6.53008e-014 -2.3059e-014
rhumerus -29.4273 -15.2052 -76.4968
rradius 32.8744
rwrist 2.67075
rhand -17.8406 8.58102
rfingers 7.12502
rthumb 8.42419 -21.231
lclavicle 6.53008e-014 -2.3059e-014
lhumerus -35.7225 14.4929 77.0586
lradius 36.9726
lwrist 0.516931
lhand -22.56 23.5168
lfingers 7.12502
lthumb 3.86798 53.4615
rfemur -3.99073 0.231942 14.9747
rtibia 27.9982
rfoot -15.8892 -6.28362
rtoes 9.82133
lfemur -12.4977 0.337802 -11.0848
ltibia 32.7151
lfoot 3.22343 6.43838
ltoes -0.174476
166
root -8.77836 18.0386 0.152723 -17.4126 -70.7827 15.5697
lowerback 14.3343 2.9081 0.921665
upperback 1.08749 3.92617 -0.401458
thorax -6.78457 1.86115 -1.72121
lowerneck -23.0921 4.96439 -6.72945
upperneck 30.6984 8.40767 3.78719
head 13.8136 3.27746 4.14688
rclavicle 7.22582e-014 -2.38542e-015
rhumerus -29.6276 -14.9259 -76.4608
rradius 33.1656
rwrist 2.38092
rhand -17.7792 8.67035
rfingers 7.12502
rthumb 8.4834 -21.1393
lclavicle 7.22582e-014 -2.38542e-015
lhumerus -35.7096 14.7809 76.971
lradius 36.7913
lwrist 0.549989
lhand -22.5028 23.9879
lfingers 7.12502
lthumb 3.92327 53.9316
rfemur -3.73306 0.289623 14.8441
rtibia 27.6681
rfoot -15.7145 -6.40161
rtoes 9.63533
lfemur -11.951 0.0473659 -10.5027
ltibia 31.9376
lfoot 4.11182 7.49538
ltoes 2.49898
167
root -8.75902 18.0419 0.218826 -16.7505 -70.3592 14.8977
lowerback 14.3496 2.75986 1.05521
upperback 1.04527 3.75398 -0.385349
thorax -6.836 1.77293 -1.74793
lowerneck -23.1652 4.95607 -6.6622
upperneck 30.6565 8.42547 3.64532
head 13.8233 3.27322 4.08449
rclavicle 5.46658e-015 3.18055e-015
rhumerus -29.9107 -14.6797 -76.3951
rradius 33.4278
rwrist 2.4398
rhand -17.6391 8.78511
rfingers 7.12502
rthumb 8.61866 -21.019
lclavicle 5.46658e-015 3.18055e-015
lhumerus -35.8282 15.0988 76.8865
lradius 36.6493
lwrist 1.12908
lhand -22.3921 24.1548
lfingers 7.12502
lthumb 4.0301 54.0964
rfemur -3.5489 -0.0335291 14.6927
rtibia 27.4021
rfoot -15.5655 -6.41028
rtoes 9.68577
lfemur -11.562 -0.147388 -9.92259
ltibia 31.147
lfoot 4.83608 8.16795
ltoes 4.03447
168
root -8.73762 18.0454 0.286439 -16.1095 -69.7006 14.2418
lowerback 14.3798 2.54562 1.19942
upperback 1.01575 3.49311 -0.406801
thorax -6.88272 1.64059 -1.80318
lowerneck -23.2319 4.95928 -6.64757
upperneck 30.5941 8.44196 3.61391
head 13.8123 3.28085 4.07247
rclavicle -8.23962e-014 -1.19271e-014
rhumerus -30.1435 -14.3156 -76.4071
rradius 33.6636
rwrist 2.21049
rhand -17.51 8.7621
rfingers 7.12502
rthumb 8.74324 -21.0368
lclavicle -8.23962e-014 -1.19271e-014
lhumerus -35.7858 15.5355 76.7473
lradius 36.3489
lwrist 1.56962
lhand -22.3158 24.1473
lfingers 7.12502
lthumb 4.10386 54.0875
rfemur -3.29871 -0.297745 14.5121
rtibia 27.1612
rfoot -15.4832 -6.77216
rtoes 9.51076
lfemur -11.2581 -0.411744 -9.4318
ltibia 30.387
lfoot 5.51672 8.57038
ltoes 3.35322
169
root -8.72069 18.0488 0.352747 -15.6732 -69.1648 13.844
lowerback 14.2843 2.40963 1.33377
upperback 1.01702 3.32762 -0.496264
thorax -6.8208 1.55612 -1.93589
lowerneck -23.1981 4.9314 -6.67857
upperneck 30.3561 8.37639 3.70395
head 13.6996 3.27781 4.08799
rclavicle 1.20265e-014 -6.36111e-015
rhumerus -30.337 -13.9971 -76.4997
rradius 33.8516
rwrist 1.9313
rhand -17.3997 8.74891
rfingers 7.12502
rthumb 8.84961 -21.0455
lclavicle 1.20265e-014 -6.36111e-015
lhumerus -35.6146 15.6857 76.6133
lradius 36.0246
lwrist 1.70531
lhand -22.4507 24.1459
lfingers 7.12502
lthumb 3.97359 54.0886
rfemur -3.12335 -0.283725 14.3134
rtibia 26.9835
rfoot -15.4431 -7.29331
rtoes 9.3193
lfemur -10.976 -0.433863 -9.00782
ltibia 29.6241
lfoot 6.10704 8.82101
ltoes 2.2994
170
root -8.70471 18.051 0.418169 -15.2476 -68.8268 13.4343
lowerback 14.1816 2.36297 1.40234
upperback 1.05034 3.27405 -0.512697
thorax -6.72523 1.52974 -1.97503
lowerneck -23.3934 4.8964 -6.67523
upperneck 30.3461 8.33813 3.7236
head 13.7382 3.26436 4.09801
rclavicle -4.47266e-015 6.36111e-015
rhumerus -30.4623 -13.9029 -76.4652
rradius 33.8967
rwrist 2.56493
rhand -17.887 8.91446
rfingers 7.12502
rthumb 8.37937 -20.8993
lclavicle -4.47266e-015 6.36111e-015
lhumerus -35.4202 15.6619 76.6709
lradius 35.7802
lwrist 1.74514
lhand -22.7379 24.327
lfingers 7.12502
lthumb 3.69617 54.2747
rfemur -2.96609 -0.274306 14.1649
rtibia 26.8195
rfoot -15.3943 -7.60618
rtoes 8.98702
lfemur -10.6075 -0.10491 -8.51152
ltibia 28.8604
lfoot 6.56503 9.00403
ltoes 2.89233
